<svg width="1108" height="230" viewBox="0 0 1108 230" fill="none" xmlns="http://www.w3.org/2000/svg">
<path d="M884.05 75.47C889.83 75.47 893.74 79.04 893.74 84.31V153.16C893.74 158.43 889.83 162 884.05 162C878.44 162 875.21 159.11 874.53 154.86C866.71 160.98 856.51 163.7 848.01 163.7C823.36 163.7 808.4 145.85 808.4 118.48C808.4 92.13 825.23 73.77 850.22 73.77C857.53 73.77 867.05 76.49 874.53 82.27C875.38 78.19 878.61 75.47 884.05 75.47ZM850.05 146.53C860.08 146.53 870.45 142.11 874.36 133.44V104.03C870.11 95.7 860.42 90.94 851.58 90.94C837.3 90.94 827.78 102.5 827.78 118.65C827.78 135.48 836.62 146.53 850.05 146.53ZM962.116 73.77C988.126 73.77 1003.09 91.62 1003.09 117.8C1003.09 143.81 988.976 163.7 965.516 163.7C955.146 163.7 945.116 160.3 937.296 153.16C937.296 158.77 934.406 162 928.116 162C921.996 162 918.256 158.77 918.256 153.33V60.51C918.256 54.56 923.016 52.01 927.946 52.01C932.706 52.01 937.636 54.56 937.636 60.51L937.466 84.14C944.946 77.17 953.956 73.77 962.116 73.77ZM961.436 146.36C974.866 146.36 983.706 134.97 983.706 117.97C983.706 101.82 974.186 91.11 959.906 91.11C950.726 91.11 941.376 96.21 937.466 105.56L937.296 131.06C940.356 141.26 950.556 146.36 961.436 146.36ZM1040.6 145.17L1083.61 145C1090.07 145 1093.47 149.42 1093.47 153.67C1093.47 157.92 1090.24 162 1083.61 162H1022.07C1015.44 162 1011.87 157.92 1011.87 153.67C1011.87 151.63 1013.06 148.91 1015.1 146.87L1063.55 92.64L1023.94 92.81C1017.82 92.81 1014.42 88.56 1014.42 84.31C1014.42 79.89 1017.82 75.47 1023.94 75.47H1082.42C1088.54 75.47 1092.62 79.89 1092.62 84.48C1092.62 86.69 1091.6 88.73 1089.56 90.94L1040.6 145.17Z" fill="#373643"/>
<path d="M356.62 146.87C363.08 146.87 369.71 145.17 375.15 140.92C385.52 131.57 397.42 144.49 387.9 153.5C379.91 161.15 368.35 163.87 357.13 163.7C330.44 163.7 312.25 146.19 312.25 120.69C312.25 92.81 329.42 73.77 356.62 73.77C383.82 73.77 399.12 91.62 399.29 117.97C399.29 123.58 398.27 128.17 388.58 128.17H331.97C335.03 139.22 344.55 146.87 356.62 146.87ZM356.79 90.6C343.53 90.6 334.18 99.61 331.8 113.04H381.27C380.08 99.61 372.77 90.6 356.79 90.6ZM438.584 153.5C438.584 158.09 434.334 162 428.894 162C423.114 162 419.204 158.09 419.204 153.5V60.51C419.204 55.92 423.114 52.01 428.894 52.01C434.334 52.01 438.584 55.92 438.584 60.51V153.5ZM496.239 73.77C523.439 73.77 541.459 92.13 541.459 119.16C541.119 145.85 522.929 163.7 496.239 163.7C469.549 163.7 451.359 145.85 451.019 119.16C451.019 92.13 469.209 73.77 496.239 73.77ZM496.239 146.7C511.539 146.7 521.569 135.48 521.569 119.16C521.569 102.5 511.539 90.77 496.239 90.77C480.939 90.77 470.909 102.5 470.909 119.16C470.909 135.48 480.939 146.7 496.239 146.7Z" fill="#373643"/>
<path d="M297.69 53C297.69 53 297.69 57.42 297.69 61.84C297.69 66.09 297.69 70.51 297.69 70.51L297.86 152.28C297.86 158.4 292.25 161.29 287.83 161.29C283.07 161.29 277.97 158.4 277.97 152.28V70.51H246.52C239.89 70.51 237 66.09 237 61.84C237 57.42 239.89 53 246.52 53H297.69Z" fill="#373643"/>
<path d="M735.17 162.29C735.17 162.29 735.17 157.87 735.17 153.45C735.17 149.2 735.17 144.78 735.17 144.78L735 63.01C735 56.89 740.61 54 745.03 54C749.79 54 754.89 56.89 754.89 63.01V144.78H786.34C792.97 144.78 795.86 149.2 795.86 153.45C795.86 157.87 792.97 162.29 786.34 162.29H735.17Z" fill="#373643"/>
<g clip-path="url(#clip0_37_122)">
<path fill-rule="evenodd" clip-rule="evenodd" d="M630.366 54.0397V83.2852H608.516C609.775 78.5105 611.348 74.1534 613.175 70.3357C617.701 60.8793 623.745 54.7962 630.366 54.0397Z" fill="#18CB96"/>
<path fill-rule="evenodd" clip-rule="evenodd" d="M580.188 83.2852C588.997 67.0409 605.256 55.4224 624.384 53.0206C619.061 55.7697 614.345 61.4311 610.659 69.1327C608.667 73.2914 606.968 78.0599 605.632 83.2852H580.188Z" fill="#18CB96"/>
<path fill-rule="evenodd" clip-rule="evenodd" d="M607.823 86.0859H630.366V109.798H605.103C605.198 101.307 606.166 93.2769 607.823 86.0859Z" fill="#18CB96"/>
<path fill-rule="evenodd" clip-rule="evenodd" d="M573.144 109.798C573.342 101.328 575.337 93.2997 578.762 86.0859H604.961C603.34 93.3245 602.398 101.346 602.303 109.798H573.144Z" fill="#18CB96"/>
<path fill-rule="evenodd" clip-rule="evenodd" d="M605.103 112.597H630.366V136.621H607.865C606.184 129.354 605.2 121.212 605.103 112.597Z" fill="#18CB96"/>
<path fill-rule="evenodd" clip-rule="evenodd" d="M578.915 136.621C575.399 129.325 573.346 121.191 573.144 112.597H602.303C602.4 121.171 603.379 129.298 605.062 136.621H578.915Z" fill="#18CB96"/>
<path fill-rule="evenodd" clip-rule="evenodd" d="M608.559 139.422H630.366V168.358C621.009 167.32 612.927 155.929 608.559 139.422Z" fill="#18CB96"/>
<path fill-rule="evenodd" clip-rule="evenodd" d="M624.481 169.387C605.434 167.027 589.223 155.53 580.36 139.422H605.75C609.601 154.127 616.368 165.185 624.481 169.387Z" fill="#18CB96"/>
<path fill-rule="evenodd" clip-rule="evenodd" d="M658.677 163.31C652.695 166.404 646.112 168.5 639.146 169.375C644.471 166.628 649.188 160.964 652.875 153.263C653.195 152.591 653.51 151.905 653.816 151.202L658.677 163.31Z" fill="#18CB96"/>
<path fill-rule="evenodd" clip-rule="evenodd" d="M652.325 147.49C651.707 149.087 651.052 150.613 650.36 152.06C645.833 161.516 639.789 167.599 633.167 168.356V139.422H649.084L652.325 147.49Z" fill="#18CB96"/>
<path fill-rule="evenodd" clip-rule="evenodd" d="M683.175 139.422C683.074 139.604 682.972 139.786 682.871 139.966L681.484 139.422H683.175Z" fill="#18CB96"/>
<path fill-rule="evenodd" clip-rule="evenodd" d="M647.96 136.621H633.167V112.597H658.431C658.384 116.671 658.138 120.637 657.71 124.457L640.335 117.636L647.96 136.621Z" fill="#18CB96"/>
<path fill-rule="evenodd" clip-rule="evenodd" d="M690.389 112.597C690.201 120.664 688.38 128.325 685.248 135.267L660.403 125.513C660.897 121.361 661.18 117.039 661.23 112.597H690.389Z" fill="#18CB96"/>
<path fill-rule="evenodd" clip-rule="evenodd" d="M658.431 109.798H633.167V86.0859H655.74C657.377 93.2728 658.334 101.305 658.431 109.798Z" fill="#18CB96"/>
<path fill-rule="evenodd" clip-rule="evenodd" d="M684.771 86.0859C688.195 93.2997 690.19 101.328 690.389 109.798H661.23C661.135 101.346 660.182 93.3265 658.543 86.0859H684.771Z" fill="#18CB96"/>
<path fill-rule="evenodd" clip-rule="evenodd" d="M655.056 83.2852H633.167V54.0376C642.584 55.0814 650.707 66.6089 655.056 83.2852Z" fill="#18CB96"/>
<path fill-rule="evenodd" clip-rule="evenodd" d="M639.053 53.0083C658.222 55.3853 674.52 67.012 683.344 83.2853H657.865C654.026 68.4258 647.222 57.2415 639.053 53.0083Z" fill="#18CB96"/>
<path fill-rule="evenodd" clip-rule="evenodd" d="M690.723 140.197L645.012 122.252L663.4 168.037L672.375 158.891L686.9 173.442L696.873 163.486L682.247 148.833L690.723 140.197Z" fill="#373643"/>
</g>
<path d="M356.816 199.2H365.504V200.928H357.536L356.792 201.72V206.16H362.36V207.912H356.792V212.88L357.728 214.272H365.504V216H356.792L354.872 213.12V201.192L356.816 199.2ZM377.975 203.256H379.919V206.064L377.519 208.512L379.919 212.04V216H377.975V212.28L376.583 210.216H373.991L371.183 213.12V216H369.263V212.664L371.639 210.216V210.168L369.263 206.64V203.256H371.183V206.4L372.599 208.464H375.143L377.975 205.56V203.256ZM387.517 203.256H392.389L394.285 206.136V214.008L392.365 216H387.541L385.597 214.848V221.184H383.677V203.256H385.597V204.432L387.517 203.256ZM385.597 212.88L386.557 214.272H391.621L392.341 213.528V206.376L391.429 205.008H386.341L385.597 205.752V212.88ZM399.964 203.256H406.684L408.676 206.112L404.716 210.192H399.964V212.88L400.9 214.272H405.988L407.332 212.952L408.388 214.272L406.708 216H399.988L398.044 213.12V205.248L399.964 203.256ZM399.964 205.752V208.464H403.996L406.42 205.92L405.796 204.984H400.732L399.964 205.752ZM401.284 201.744L400.492 200.64L404.716 197.88L405.916 199.512L401.284 201.744ZM412.339 203.256H413.395L415.675 204.624L416.995 203.256H421.939L423.187 205.08L421.747 206.064L421.027 204.984H417.739L416.683 206.112V214.272H420.067V216H412.339V214.272H414.763V206.352L413.827 204.984H412.339V203.256ZM427.809 202.8H431.193L433.113 205.68V214.272H437.457V216H426.849V214.272H431.193V205.92L430.281 204.552H427.809V202.8ZM430.953 199.656H433.353V197.256H430.953V199.656ZM440.76 203.256H442.68V204.408L444.6 203.256H445.608L446.712 204.912L449.472 203.256H450.408L452.352 206.112V216H450.408V206.352L449.496 204.984H448.272L447.552 205.776V209.352H445.608V206.352L444.696 204.984H443.424L442.68 205.776V216H440.76V203.256ZM457.526 203.256H464.246L466.238 206.112L462.278 210.192H457.526V212.88L458.462 214.272H463.55L464.894 212.952L465.95 214.272L464.27 216H457.55L455.606 213.12V205.248L457.526 203.256ZM457.526 205.752V208.464H461.558L463.982 205.92L463.358 204.984H458.294L457.526 205.752ZM470.021 203.256H471.941V204.408L473.885 203.256H478.709L480.653 206.088V216H478.709V206.328L477.797 204.984H472.685L471.941 205.752V216H470.021V203.256ZM486.812 198.048H488.732V203.232H492.62V204.984H488.732V212.88L489.668 214.248H492.092L493.532 212.808L494.516 214.248L492.884 216H488.732L486.812 213.168V204.984H484.916V203.232H486.812V198.048ZM500.698 203.256H507.418L509.41 206.112L505.45 210.192H500.698V212.88L501.634 214.272H506.722L508.066 212.952L509.122 214.272L507.442 216H500.722L498.778 213.12V205.248L500.698 203.256ZM500.698 205.752V208.464H504.73L507.154 205.92L506.53 204.984H501.466L500.698 205.752ZM516.817 212.808H520.177V219.096L518.089 221.208L517.105 219.696L518.257 218.496V216H516.817V212.808ZM544.302 199.2H551.046L552.63 201.6L551.406 202.896L550.134 200.928H545.022L544.278 201.72V212.88L545.214 214.272H550.278L551.718 212.832L552.678 214.272L551.046 216H544.278L542.358 213.12V201.192L544.302 199.2ZM556.245 203.256H557.301L559.581 204.624L560.901 203.256H565.845L567.093 205.08L565.653 206.064L564.933 204.984H561.645L560.589 206.112V214.272H563.973V216H556.245V214.272H558.669V206.352L557.733 204.984H556.245V203.256ZM572.651 203.256H579.371L581.363 206.112L577.403 210.192H572.651V212.88L573.587 214.272H578.675L580.019 212.952L581.075 214.272L579.395 216H572.675L570.731 213.12V205.248L572.651 203.256ZM572.651 205.752V208.464H576.683L579.107 205.92L578.483 204.984H573.419L572.651 205.752ZM573.971 201.744L573.179 200.64L577.403 197.88L578.603 199.512L573.971 201.744ZM587.042 203.256H593.762L595.754 206.112L591.794 210.192H587.042V212.88L587.978 214.272H593.066L594.41 212.952L595.466 214.272L593.786 216H587.066L585.122 213.12V205.248L587.042 203.256ZM587.042 205.752V208.464H591.074L593.498 205.92L592.874 204.984H587.81L587.042 205.752ZM603.161 212.808H606.521V219.096L604.433 221.208L603.449 219.696L604.601 218.496V216H603.161V212.808ZM628.318 199.2H638.926V200.952H634.582V214.248H638.926V216H628.318V214.248H632.662V200.952H628.318V199.2ZM642.709 203.256H644.629V204.408L646.573 203.256H651.397L653.341 206.088V216H651.397V206.328L650.485 204.984H645.373L644.629 205.752V216H642.709V203.256ZM659.043 203.256H665.787L667.491 205.8L666.267 207.072L664.851 204.984H659.787L659.043 205.752V212.88L659.979 214.272H665.043L666.459 212.808L667.443 214.272L665.787 216H659.067L657.123 213.12V205.248L659.043 203.256ZM673.266 202.728H680.802L682.314 204.96V216H680.298V214.776L678.282 216H673.266L671.25 213V212.04L674.994 208.152H680.298V204.504H673.266V202.728ZM673.266 212.76L674.202 214.176H680.298V209.976H675.786L673.266 212.568V212.76ZM685.76 203.256H686.816L689.096 204.624L690.416 203.256H695.36L696.608 205.08L695.168 206.064L694.448 204.984H691.16L690.104 206.112V214.272H693.488V216H685.76V214.272H688.184V206.352L687.248 204.984H685.76V203.256ZM700.271 203.256H702.191V204.408L704.135 203.256H708.959L710.903 206.088V216H708.959V206.328L708.047 204.984H702.935L702.191 205.752V216H700.271V203.256ZM716.558 203.256H723.278L725.27 206.112L721.31 210.192H716.558V212.88L717.494 214.272H722.582L723.926 212.952L724.982 214.272L723.302 216H716.582L714.638 213.12V205.248L716.558 203.256ZM716.558 205.752V208.464H720.59L723.014 205.92L722.39 204.984H717.326L716.558 205.752ZM743.419 198.048H747.019L748.963 199.2V212.904L749.875 214.272H754.051L754.027 216H748.963L747.019 213.144V199.776H743.419V198.048ZM762.178 205.608V199.2H764.122V205.608H762.178ZM773.184 202.8H776.568L778.488 205.68V214.272H782.832V216H772.224V214.272H776.568V205.92L775.656 204.552H773.184V202.8ZM776.328 199.656H778.728V197.256H776.328V199.656ZM786.615 203.256H788.535V204.408L790.479 203.256H795.303L797.247 206.088V216H795.303V206.328L794.391 204.984H789.279L788.535 205.752V216H786.615V203.256ZM801.005 203.256H802.925V204.408L804.869 203.256H809.693L811.637 206.088V216H809.693V206.328L808.781 204.984H803.669L802.925 205.752V216H801.005V203.256ZM817.34 203.256H824.132L826.052 206.136V214.008L824.132 216H817.364L815.42 213.12V205.248L817.34 203.256ZM817.316 212.88L818.276 214.272H823.364L824.084 213.504V206.352L823.172 204.984H818.06L817.316 205.776V212.88ZM838.475 203.232H840.419V210.576L835.187 216H833.507L829.787 210.48V203.232H831.707V210.216L834.443 214.296L838.475 210.096V203.232ZM845.953 202.728H853.489L855.001 204.96V216H852.985V214.776L850.969 216H845.953L843.937 213V212.04L847.681 208.152H852.985V204.504H845.953V202.728ZM845.953 212.76L846.889 214.176H852.985V209.976H848.473L845.953 212.568V212.76ZM860.968 198.048H862.888V203.232H866.776V204.984H862.888V212.88L863.824 214.248H866.248L867.688 212.808L868.672 214.248L867.04 216H862.888L860.968 213.168V204.984H859.072V203.232H860.968V198.048ZM873.919 202.8H877.303L879.223 205.68V214.272H883.567V216H872.959V214.272H877.303V205.92L876.391 204.552H873.919V202.8ZM877.062 199.656H879.463V197.256H877.062V199.656ZM889.293 203.256H896.085L898.005 206.136V214.008L896.085 216H889.317L887.373 213.12V205.248L889.293 203.256ZM889.269 212.88L890.229 214.272H895.317L896.037 213.504V206.352L895.125 204.984H890.013L889.269 205.776V212.88ZM901.74 203.256H903.66V204.408L905.604 203.256H910.428L912.372 206.088V216H910.428V206.328L909.516 204.984H904.404L903.66 205.752V216H901.74V203.256ZM919.754 216V212.64H923.114V216H919.754Z" fill="black"/>
<g clip-path="url(#clip1_37_122)">
<path d="M215 15H0V229.47H215V15Z" fill="#D9D9D9" fill-opacity="0.1"/>
<path d="M0 20.2956C0 17.3709 2.37676 15 5.30864 15H132.716V46.7734C132.716 49.6981 130.339 52.069 127.407 52.069H36.3642H0V20.2956Z" fill="#373643"/>
<path d="M0.265381 20.2956C0.265381 17.5171 2.5233 15.2648 5.30859 15.2648H132.451V46.7734C132.451 49.5518 130.193 51.8042 127.407 51.8042H36.3641H0.265381V20.2956Z" stroke="#373643" stroke-opacity="0.1"/>
<path d="M151.296 15H209.691C212.623 15 215 17.3709 215 20.2956V52.069H156.605C153.673 52.069 151.296 49.6981 151.296 46.7734V15Z" fill="#DAD317"/>
<path d="M0 70.6034H127.407C130.339 70.6034 132.716 72.9742 132.716 75.899V229.47H5.30864C2.37676 229.47 0 227.1 0 224.175V70.6034Z" fill="#373643"/>
<mask id="mask0_37_122" style="mask-type:luminance" maskUnits="userSpaceOnUse" x="0" y="70" width="133" height="160">
<path d="M0 70.6034H127.407C130.339 70.6034 132.716 72.9742 132.716 75.899V229.47H5.30864C2.37676 229.47 0 227.1 0 224.175V70.6034Z" fill="white"/>
</mask>
<g mask="url(#mask0_37_122)">
<path d="M132.716 237.414H5.30872C-2.02099 237.414 -7.96289 231.486 -7.96289 224.175L7.96304 221.527H132.716V237.414ZM5.30872 237.414C-2.02099 237.414 -7.96289 231.486 -7.96289 224.175V70.6034H7.96304V221.527L5.30872 237.414Z" fill="#373643" fill-opacity="0.1"/>
</g>
<path d="M151.296 75.899C151.296 72.9742 153.673 70.6034 156.605 70.6034H215V213.584H156.605C153.673 213.584 151.296 211.213 151.296 208.288V75.899Z" fill="#373643"/>
<path d="M0 102.377C68.6062 102.377 124.222 157.856 124.222 226.293V230H0V102.377Z" fill="white"/>
<path d="M16.1915 33.5344C19.8563 33.5344 22.8273 30.5708 22.8273 26.915C22.8273 23.2592 19.8563 20.2955 16.1915 20.2955C12.5266 20.2955 9.55566 23.2592 9.55566 26.915C9.55566 30.5708 12.5266 33.5344 16.1915 33.5344Z" fill="white"/>
<path d="M37.4258 33.5344C41.0907 33.5344 44.0616 30.5708 44.0616 26.915C44.0616 23.2592 41.0907 20.2955 37.4258 20.2955C33.761 20.2955 30.79 23.2592 30.79 26.915C30.79 30.5708 33.761 33.5344 37.4258 33.5344Z" fill="white"/>
<path d="M58.6605 33.5344C62.3253 33.5344 65.2963 30.5708 65.2963 26.915C65.2963 23.2592 62.3253 20.2955 58.6605 20.2955C54.9956 20.2955 52.0247 23.2592 52.0247 26.915C52.0247 30.5708 54.9956 33.5344 58.6605 33.5344Z" fill="white"/>
</g>
<defs>
<clipPath id="clip0_37_122">
<rect width="140" height="140" fill="white" transform="translate(565 43)"/>
</clipPath>
<clipPath id="clip1_37_122">
<rect width="215" height="215" fill="white" transform="translate(0 15)"/>
</clipPath>
</defs>
</svg>
